# xmcd
#
# Track frame offsets:
#	150
#	14846
#	32485
#	50508
#	67307
#	84951
#	100548
#	116992
#	134231
#	150773
#	168383
#	184830
#	200780
#	218415
#	233520
#	251212
#	269106
#	284811
#	301017
#	316651
#	335166
#
# Disc length: 4629 seconds
#
# Revision: 2
# Processed by: cddbd v1.5.2PL0 Copyright (c) Steve Scherf et al.
# Submitted via: audiograbber 1.83.01
#
DISCID=3b121315
DTITLE=Roland Kaiser - auf den Kopf gestellt [CD+DVD]
DYEAR=2016
DGENRE=Schlager
TTITLE0=Auf den Kopf gestellt
TTITLE1=Brief an mich selbst
TTITLE2=Das Beste am Leben
TTITLE3=Hör auf dein Herz
TTITLE4=Halt mich noch einmal fest
TTITLE5=Ein Leben lang
TTITLE6=Fünfundzwanzig Stunden
TTITLE7=Applaus für deine Lügen
TTITLE8=Kein Problem
TTITLE9=Seiltänzerin
TTITLE10=Ich wär so gern der andre Mann
TTITLE11=Weil du in mir gespeichert bist
TTITLE12=Am Morgen nach dem großen Tag
TTITLE13=Und wenn dein Name Leila wär
TTITLE14=Herzbeben
TTITLE15=Das Beste am Leben (Akustik Filtr Sessions)
TTITLE16=Ein Leben lang (Akustik Filtr Sessions)
TTITLE17=Kein Problem (Akustik Filtr Sessions)
TTITLE18=Warum hast du nicht nein gesagt (Akustik Filtr Sessions)
TTITLE19=Joana (Akustik Filtr Sessions)
TTITLE20=Strangers In The Night (Akustik Filtr Sessions)
EXTD=
EXTT0=
EXTT1=
EXTT2=
EXTT3=
EXTT4=
EXTT5=
EXTT6=
EXTT7=
EXTT8=
EXTT9=
EXTT10=
EXTT11=
EXTT12=
EXTT13=
EXTT14=
EXTT15=
EXTT16=
EXTT17=
EXTT18=
EXTT19=
EXTT20=
PLAYORDER=
